<svg id="account" xmlns="http://www.w3.org/2000/svg" width="45" height="44" viewBox="0 0 45 44">
  <ellipse id="blue" cx="22.5" cy="22" rx="22.5" ry="22" fill="#2d9cdb"/>
  <g id="accounts_1" data-name="accounts 1" transform="translate(7 7)">
    <g id="Group">
      <path id="Vector" d="M16.591,9.422l-1.049-.535a5.4,5.4,0,0,0,0-2.309l1.049-.531a.722.722,0,0,0,.371-.427.631.631,0,0,0-.079-.533L15.289,2.649a.792.792,0,0,0-.484-.327.891.891,0,0,0-.6.07l-1.048.533a7.45,7.45,0,0,0-2.267-1.152V.7a.664.664,0,0,0-.233-.5A.854.854,0,0,0,10.088,0H6.9a.854.854,0,0,0-.563.206A.664.664,0,0,0,6.1.7V1.774A7.445,7.445,0,0,0,3.836,2.925L2.789,2.391a.891.891,0,0,0-.6-.07.792.792,0,0,0-.484.327L.107,5.085a.631.631,0,0,0-.079.533A.722.722,0,0,0,.4,6.045l1.049.535a5.423,5.423,0,0,0,0,2.309L.4,9.422a.722.722,0,0,0-.371.427.631.631,0,0,0,.079.533L1.7,12.819a.792.792,0,0,0,.484.327.891.891,0,0,0,.6-.07l1.047-.533A7.445,7.445,0,0,0,6.1,13.695v1.071a.664.664,0,0,0,.233.5.854.854,0,0,0,.563.206h3.188a.854.854,0,0,0,.563-.206.664.664,0,0,0,.233-.5V13.695a7.45,7.45,0,0,0,2.267-1.152l1.048.535a.891.891,0,0,0,.6.07.792.792,0,0,0,.484-.327l1.594-2.438a.649.649,0,0,0,.1-.26.623.623,0,0,0-.02-.274.674.674,0,0,0-.138-.246.776.776,0,0,0-.234-.181Zm-8.1,1.594a4.08,4.08,0,0,1-2.066-.553A3.408,3.408,0,0,1,5.059,8.99a2.924,2.924,0,0,1-.212-1.9,3.183,3.183,0,0,1,1.018-1.68,3.9,3.9,0,0,1,1.9-.9A4.181,4.181,0,0,1,9.918,4.7a3.658,3.658,0,0,1,1.669,1.209,3.014,3.014,0,0,1,.627,1.823,3.1,3.1,0,0,1-1.09,2.319A3.989,3.989,0,0,1,8.494,11.016Z" transform="translate(16.746 14.297)" fill="#fff"/>
      <path id="Vector-2" data-name="Vector" d="M17.462,11.768a8.14,8.14,0,0,0,2.763-5.929C20.226,2.4,17.5,0,13.609,0S6.991,2.4,6.991,5.839A8.136,8.136,0,0,0,9.757,11.77a13.093,13.093,0,0,0-7.036,4.02,10.5,10.5,0,0,0-2.721,7,.641.641,0,0,0,.106.352A.757.757,0,0,0,.4,23.4a27.617,27.617,0,0,0,13.211,3.311q1.271,0,2.536-.121l-.881-1.346c-.555.036-1.108.06-1.655.061A25.914,25.914,0,0,1,1.6,22.394,9.17,9.17,0,0,1,3.683,17a11.15,11.15,0,0,1,5.1-3.489l4.134,6.317a.757.757,0,0,0,.292.258.89.89,0,0,0,.8,0,.757.757,0,0,0,.292-.258l4.133-6.315a11.825,11.825,0,0,1,2.559,1.247,1.954,1.954,0,0,1,.577-1.357,13.985,13.985,0,0,0-4.107-1.638ZM8.585,5.839c0-2.693,1.972-4.433,5.023-4.433s5.023,1.74,5.023,4.433-2.149,6.039-5.023,6.039c-2.857,0-5.023-3.3-5.023-6.039Zm5.023,12.234-3.259-4.98q.614-.127,1.24-.195a5.463,5.463,0,0,0,4.041,0q.625.066,1.238.195Z" transform="translate(0.266 0.234)" fill="#fff"/>
    </g>
  </g>
</svg>
