<svg id="accout" xmlns="http://www.w3.org/2000/svg" width="45" height="44" viewBox="0 0 45 44">
  <ellipse id="green" cx="22.5" cy="22" rx="22.5" ry="22" fill="#14dc71"/>
  <g id="follower_1" data-name="follower 1" transform="translate(-3 -3)">
    <g id="Group">
      <g id="Group-2" data-name="Group">
        <path id="Vector" d="M24.262,14.976a7.534,7.534,0,0,0-2.24.338,11.08,11.08,0,0,0-2.9-1.3A5.57,5.57,0,0,0,16.438,3.783a5.6,5.6,0,1,0-8.35,6.472A11.122,11.122,0,0,0,0,20.927a.669.669,0,0,0,.67.667H5.375a11.024,11.024,0,0,0-.444,3.095.669.669,0,0,0,.67.667H17.293a7.534,7.534,0,1,0,6.969-10.38Zm-3.93-5.631a4.258,4.258,0,1,1-1.249-3,4.235,4.235,0,0,1,1.249,3ZM6.879,5.583a4.263,4.263,0,0,1,8.156-1.719A5.592,5.592,0,0,0,10.47,9.345c0,.145.011.287.022.429A4.253,4.253,0,0,1,6.879,5.583ZM1.362,20.26a9.8,9.8,0,0,1,9.423-9.088,5.605,5.605,0,0,0,2.234,2.846A11.175,11.175,0,0,0,5.859,20.26Zm4.931,3.762A9.8,9.8,0,0,1,20.5,15.985a7.489,7.489,0,0,0-3.625,8.037Zm17.968,4.649a6.2,6.2,0,1,1,4.384-1.812,6.219,6.219,0,0,1-4.384,1.812Z" transform="translate(9.295 9.629)" fill="#fff"/>
        <path id="Vector-2" data-name="Vector" d="M6.806.162,2.857,3.67,1.107,2.114a.668.668,0,0,0-.891,1l2.2,1.952a.672.672,0,0,0,.891,0L7.7,1.158a.668.668,0,0,0-.891-1Z" transform="translate(29.601 29.509)" fill="#fff"/>
      </g>
    </g>
  </g>
</svg>
