<svg id="home_" data-name="home " xmlns="http://www.w3.org/2000/svg" width="45" height="44" viewBox="0 0 45 44">
  <path id="orange" d="M45,22A22.254,22.254,0,0,1,22.5,44,22.254,22.254,0,0,1,0,22,22.254,22.254,0,0,1,22.5,0,22.254,22.254,0,0,1,45,22Z" fill="rgba(254,104,0,0.9)"/>
  <g id="group_home" data-name="group home" transform="translate(-45 -756)">
    <g id="Group">
      <path id="Vector" d="M31.75,12.1,16.648.207a.991.991,0,0,0-1.211,0L.335,12.1a.84.84,0,0,0-.114,1.238.986.986,0,0,0,1.324.106l1.65-1.3V29.121a.911.911,0,0,0,.94.879H27.949a.911.911,0,0,0,.94-.879V12.143l1.65,1.3a.986.986,0,0,0,1.324-.106A.84.84,0,0,0,31.75,12.1ZM16.042,15.841a.911.911,0,0,0-.94.879v1.664l-.921-1.025a.986.986,0,0,0-1.324-.108.84.84,0,0,0-.115,1.238l2.36,2.627v.522l-.921-1.025a.986.986,0,0,0-1.324-.108.84.84,0,0,0-.115,1.238l2.36,2.627v.865a4.733,4.733,0,0,1-4.021-4.544c0-3.654,3.416-8.63,4.961-10.694C17.588,12.064,21,17.04,21,20.694a4.733,4.733,0,0,1-4.021,4.544v-.865l2.36-2.627a.84.84,0,0,0-.115-1.238.985.985,0,0,0-1.324.108l-.921,1.025v-.522l2.36-2.627a.84.84,0,0,0-.115-1.238.985.985,0,0,0-1.324.108l-.921,1.025V16.72A.911.911,0,0,0,16.042,15.841Zm10.966,12.4H16.982V27.02a6.559,6.559,0,0,0,5.9-6.326c0-5.3-5.849-12.426-6.1-12.727a.981.981,0,0,0-1.487,0c-.249.3-6.1,7.428-6.1,12.727a6.559,6.559,0,0,0,5.9,6.326v1.222H5.076V10.663L16.042,2.028l10.966,8.635Z" transform="translate(51.181 762)" fill="#fff"/>
    </g>
  </g>
</svg>
