<svg id="treanding" xmlns="http://www.w3.org/2000/svg" width="45" height="44" viewBox="0 0 45 44">
  <path id="yellow" d="M45,22A22.254,22.254,0,0,1,22.5,44,22.254,22.254,0,0,1,0,22,22.254,22.254,0,0,1,22.5,0,22.254,22.254,0,0,1,45,22Z" fill="#ffc838"/>
  <g id="trending_1" data-name="trending 1" transform="translate(4 6)">
    <g id="Group">
      <path id="Vector" d="M18.919,7.79A1.059,1.059,0,0,0,17.8,7.4a.9.9,0,0,0-.729.847,2.09,2.09,0,0,1-2.2,1.945,2.089,2.089,0,0,1-2.2-1.945V.879a.886.886,0,0,0-.615-.812,1.1,1.1,0,0,0-1.086.191A44.634,44.634,0,0,0,5.5,6.275a33.044,33.044,0,0,0-3.764,6.192A17.662,17.662,0,0,0,0,19.707C0,25.383,5.233,30,11.665,30s11.665-4.617,11.665-10.293c0-3.633-1.484-7.642-4.411-11.917ZM11.665,28.242c-5.334,0-9.673-3.829-9.673-8.535,0-4.633,2.8-9.315,5.146-12.428a45.193,45.193,0,0,1,3.531-4.12V8.245a3.978,3.978,0,0,0,4.2,3.7,4.383,4.383,0,0,0,3.429-1.57,18.433,18.433,0,0,1,3.044,9.329C21.338,24.413,17,28.242,11.665,28.242Z" transform="translate(6.296)" fill="#fff"/>
      <path id="Vector-2" data-name="Vector" d="M12.938,0H8.67a.943.943,0,0,0-1,.879.943.943,0,0,0,1,.879h1.863L6.277,5.513,3.964,3.471a1.092,1.092,0,0,0-1.409,0l-2.264,2a.808.808,0,0,0,0,1.243,1.093,1.093,0,0,0,1.409,0L3.26,5.336,5.573,7.377a1.092,1.092,0,0,0,1.409,0L11.941,3V4.644a1,1,0,0,0,1.992,0V.879a.943.943,0,0,0-1-.879Z" transform="translate(10.675 14.834)" fill="#fff"/>
    </g>
  </g>
</svg>
