<svg id="comment" xmlns="http://www.w3.org/2000/svg" width="37" height="37" viewBox="0 0 37 37">
  <g id="Group" transform="translate(-99 -668)">
    <path id="Rectangle_21" data-name="Rectangle 21" d="M18.5,0h0A18.5,18.5,0,0,1,37,18.5v0A18.5,18.5,0,0,1,18.5,37H0a0,0,0,0,1,0,0V18.5A18.5,18.5,0,0,1,18.5,0Z" transform="translate(99 668)" fill="#2d9cdb"/>
  </g>
  <g id="comment_2" data-name="comment 2" transform="translate(6 9)">
    <g id="Group-2" data-name="Group">
      <g id="Group-3" data-name="Group">
        <path id="Vector" d="M0,16.8V6.038A6.187,6.187,0,0,1,6.312,0H16.686A6.188,6.188,0,0,1,23,6.038V7.895a6.187,6.187,0,0,1-6.312,6.038H6.459ZM6.312,1.346A4.808,4.808,0,0,0,1.407,6.038v8.655l4.741-2.107H16.688a4.808,4.808,0,0,0,4.905-4.692V6.037a4.808,4.808,0,0,0-4.907-4.692H6.312Zm.464,4.59a1.281,1.281,0,1,1-1.338,1.28A1.31,1.31,0,0,1,6.776,5.936Zm9.446,0a1.281,1.281,0,1,1-1.338,1.28A1.31,1.31,0,0,1,16.223,5.936Zm-4.724,0a1.281,1.281,0,1,1-1.338,1.28A1.31,1.31,0,0,1,11.5,5.936Z" transform="translate(0 2.599)" fill="#fff"/>
      </g>
    </g>
  </g>
</svg>
