<svg id="follow_icon" xmlns="http://www.w3.org/2000/svg" width="26.716" height="25.546" viewBox="0 0 26.716 25.546">
  <g id="follow_" data-name="follow " transform="translate(-339.704 -82.349)">
    <g id="Group">
      <path id="Vector" d="M20.383,12.753a6.252,6.252,0,0,0-1.882.288,9.248,9.248,0,0,0-2.437-1.1,4.735,4.735,0,0,0,1.824-2.265A4.774,4.774,0,0,0,16.5,4.3,4.672,4.672,0,0,0,13.81,3.222,4.756,4.756,0,0,0,12.621,1.33,4.669,4.669,0,0,0,6.469,1a4.742,4.742,0,0,0-1.38,1.754A4.791,4.791,0,0,0,5.272,7.1,4.731,4.731,0,0,0,6.795,8.733a9.372,9.372,0,0,0-4.9,3.4A9.527,9.527,0,0,0,0,17.82a.571.571,0,0,0,.165.4.56.56,0,0,0,.4.167H4.516a9.506,9.506,0,0,0-.373,2.635.571.571,0,0,0,.165.4.56.56,0,0,0,.4.166h9.823A6.388,6.388,0,0,0,16.6,24.284a6.3,6.3,0,0,0,9.042-1.578,6.45,6.45,0,0,0,.322-6.57,6.37,6.37,0,0,0-2.33-2.472,6.288,6.288,0,0,0-3.257-.911Zm-3.3-4.8a3.641,3.641,0,0,1-.6,2.008A3.588,3.588,0,0,1,14.872,11.3a3.554,3.554,0,0,1-3.9-.784,3.635,3.635,0,0,1,.543-5.562,3.55,3.55,0,0,1,4.519.451,3.637,3.637,0,0,1,1.05,2.555Zm-11.3-3.2a3.637,3.637,0,0,1,.8-2.277,3.565,3.565,0,0,1,6.054.813A4.7,4.7,0,0,0,9.882,4.927,4.785,4.785,0,0,0,8.8,7.958c0,.123.009.244.018.366A3.574,3.574,0,0,1,6.644,7.105a3.639,3.639,0,0,1-.865-2.351Zm-4.635,12.5a8.36,8.36,0,0,1,2.49-5.4A8.2,8.2,0,0,1,9.061,9.513a4.763,4.763,0,0,0,1.877,2.423,9.372,9.372,0,0,0-3.595,1.98,9.487,9.487,0,0,0-2.42,3.336Zm4.143,3.2A8.365,8.365,0,0,1,6.53,16.6a8.263,8.263,0,0,1,2.9-2.8,8.157,8.157,0,0,1,7.791-.18A6.364,6.364,0,0,0,14.6,16.534a6.444,6.444,0,0,0-.423,3.921Zm15.1,3.958a5.175,5.175,0,0,1-2.9-.887,5.252,5.252,0,0,1-1.919-2.362A5.3,5.3,0,0,1,16.7,15.43a5.183,5.183,0,0,1,8.018.8,5.3,5.3,0,0,1-.65,6.643,5.191,5.191,0,0,1-3.683,1.543Z" transform="translate(339.704 82.349)" fill="#fff"/>
      <path id="Vector-2" data-name="Vector" d="M.345.985A.571.571,0,0,0,.525.595.572.572,0,0,0,.383.189.561.561,0,0,0,0,0" transform="translate(362.887 99.278)" fill="none"/>
    </g>
  </g>
  <g id="Group-2" data-name="Group" transform="translate(-339.704 -82.349)">
    <path id="Vector-3" data-name="Vector" d="M7.877,3.444H4.947V.643A.673.673,0,0,0,3.6.643v2.8H.673a.644.644,0,1,0,0,1.286H3.6v2.8a.673.673,0,0,0,1.345,0V4.73h2.93a.644.644,0,1,0,0-1.286Z" transform="translate(355.734 97.677)" fill="#fff"/>
  </g>
</svg>
