<svg id="like" xmlns="http://www.w3.org/2000/svg" width="37" height="37" viewBox="0 0 37 37">
  <g id="Group" transform="translate(-45 -668)">
    <path id="Rectangle_21" data-name="Rectangle 21" d="M18.5,0h0A18.5,18.5,0,0,1,37,18.5V37a0,0,0,0,1,0,0H18.5A18.5,18.5,0,0,1,0,18.5v0A18.5,18.5,0,0,1,18.5,0Z" transform="translate(45 668)" fill="#e1306c"/>
    <path id="Vector" d="M15.779,0a5.818,5.818,0,0,0-4.767,2.66A5.741,5.741,0,0,0,6.245,0C2.8,0,0,3.377,0,7.543c0,7.139,10.315,14.109,10.733,14.378a.432.432,0,0,0,.558,0c.418-.269,10.733-7.139,10.733-14.378C22.024,3.377,19.228,0,15.779,0ZM11.012,20.575c-1.617-1.145-9.9-7.24-9.9-13.031,0-3.422,2.3-6.2,5.13-6.2a4.867,4.867,0,0,1,4.293,2.795.524.524,0,0,0,.818.157.66.66,0,0,0,.13-.157c1.55-2.864,4.729-3.668,7.1-1.795a6.61,6.61,0,0,1,2.322,5.2C20.909,13.4,12.629,19.464,11.012,20.575Z" transform="translate(52.929 676.81)" fill="#fff"/>
  </g>
</svg>
