<svg id="my_order_" data-name="my_order " xmlns="http://www.w3.org/2000/svg" width="35.875" height="30.625" viewBox="0 0 35.875 30.625">
  <path id="Vector" d="M0,17.5a.51.51,0,0,0,.188.387.7.7,0,0,0,.453.16H20.5V5.469a1.529,1.529,0,0,1,.563-1.16,2.1,2.1,0,0,1,1.359-.481H30.75V0H19.219V3.828a.49.49,0,0,1-.1.291.618.618,0,0,1-.265.2.738.738,0,0,1-.35.05.7.7,0,0,1-.328-.116l-2.8-1.915-2.8,1.914a.7.7,0,0,1-.328.116.738.738,0,0,1-.35-.05.618.618,0,0,1-.265-.2.49.49,0,0,1-.1-.291V0H0Z" transform="translate(0 9.297)" fill="#2d9cdb"/>
  <path id="Vector-2" data-name="Vector" d="M2.162,5.589a.728.728,0,0,1,.8,0L5.125,7.065V0H0V7.065Z" transform="translate(12.813 4.922)" fill="#2d9cdb"/>
  <path id="Vector-3" data-name="Vector" d="M0,0H11.531V3.281H0Z" transform="translate(19.219 4.922)" fill="#2d9cdb"/>
  <path id="Vector-4" data-name="Vector" d="M0,0H11.531V3.281H0Z" transform="translate(0 4.922)" fill="#2d9cdb"/>
  <path id="Vector-5" data-name="Vector" d="M1.094,1.254l.188.16V0H0V1.414l.188-.16a.7.7,0,0,1,.453-.16.7.7,0,0,1,.453.16Z" transform="translate(32.031 14.219)" fill="#2d9cdb"/>
  <path id="Vector-6" data-name="Vector" d="M.641,16.406H13.453a.7.7,0,0,0,.453-.16.51.51,0,0,0,.188-.387V.547A.51.51,0,0,0,13.906.16.7.7,0,0,0,13.453,0h-.641V2.734a.492.492,0,0,1-.108.3.629.629,0,0,1-.287.2.727.727,0,0,1-.245.042.7.7,0,0,1-.453-.16l-.828-.707-.828.707a.681.681,0,0,1-.328.15.743.743,0,0,1-.37-.031.63.63,0,0,1-.287-.2.492.492,0,0,1-.108-.3V0H.641A.7.7,0,0,0,.188.16.51.51,0,0,0,0,.547V15.859a.51.51,0,0,0,.188.387A.7.7,0,0,0,.641,16.406ZM10.25,4.375h2.563V5.469H10.25Zm-2.562,0H8.969V5.469H7.688Zm0,2.188h5.125V7.656H7.688Zm0,3.828h5.125v1.094H7.688Zm0,2.188h5.125v1.094H7.688ZM2.375,5.629l.828.707,2.11-1.8.906.773L3.656,7.5a.721.721,0,0,1-.906,0L1.469,6.4Zm0,6.016.828.707,2.11-1.8.906.773L3.656,13.512a.721.721,0,0,1-.906,0L1.469,12.418Z" transform="translate(21.781 14.219)" fill="#2d9cdb"/>
  <path id="Vector-7" data-name="Vector" d="M26.3,0H3.332a.719.719,0,0,0-.3.063A.607.607,0,0,0,2.8.241L0,3.828H29.637L26.835.243a.608.608,0,0,0-.229-.179A.721.721,0,0,0,26.3,0Z" transform="translate(0.557)" fill="#2d9cdb"/>
</svg>
