<svg xmlns="http://www.w3.org/2000/svg" width="35" height="34.166" viewBox="0 0 35 34.166">
  <g id="setting_" data-name="setting " transform="translate(0 -0.417)">
    <g id="Group">
      <g id="Group-2" data-name="Group">
        <path id="Vector" d="M31.007,15.806a13.4,13.4,0,0,0-.843-3.726l3.154-2.526-5.126-6.4-3.135,2.51a13.388,13.388,0,0,0-3.494-1.68V0h-8.2V4.01A13.374,13.374,0,0,0,9.724,5.823L6.556,3.361,1.524,9.836l3.224,2.505a13.417,13.417,0,0,0-.765,3.723L0,17.017l1.908,7.974,2.8-.67,4.265-4.265a9.089,9.089,0,1,1,5.671,5.486L8.57,31.618l5.407,2.549,1.8-3.816a13.576,13.576,0,0,0,3.7-.031l1.842,3.765,7.365-3.6-1.837-3.755A13.476,13.476,0,0,0,29.174,23.8l4.035.9L35,16.7Z" transform="translate(0 0.417)" fill="#2d9cdb"/>
      </g>
    </g>
    <g id="Group-3" data-name="Group">
      <g id="Group-4" data-name="Group">
        <path id="Vector-2" data-name="Vector" d="M21.806,4.055l-.575-1.447L17.768,6.069,16.213,4.514l3.462-3.462L18.228.476A6.412,6.412,0,0,0,10.3,9.6L0,19.9l2.679,2.679L13.074,12.187A6.408,6.408,0,0,0,21.806,4.055Z" transform="translate(1.524 10.92)" fill="#2d9cdb"/>
      </g>
    </g>
  </g>
</svg>
